<svg id="Layer_1" enable-background="new 0 0 512 512" height="512" viewBox="0 0 512 512" width="512" xmlns="http://www.w3.org/2000/svg"><g id="XMLID_1_"><g id="XMLID_4791_"><path id="XMLID_1975_" d="m299 163h158c30.5-47.2 31.1-107.8 1.5-155.6l-1.5-2.4h-1.5c-63.4 0-119.5 41.1-138.6 101.6z" fill="#ffc970"/><path id="XMLID_1974_" d="m339.3 62.9c-9.7 12.9-17.4 27.6-22.5 43.6l-17.8 56.5h158c4.5-7 8.4-14.4 11.6-21.9-34.6-38.7-79.8-65.6-129.3-78.2z" fill="#ffb233"/><path id="XMLID_1973_" d="m299 163h158c30.5-47.2 31.1-107.8 1.5-155.6l-1.5-2.4z" fill="#d7d5c1"/><path id="XMLID_1972_" d="m213 163h-158c-30.5-47.2-31.1-107.8-1.5-155.6l1.5-2.4h1.5c63.4 0 119.5 41.1 138.6 101.6z" fill="#ffc970"/><path id="XMLID_1971_" d="m195.1 106.6c-5.1-16-12.8-30.7-22.5-43.6-49.4 12.5-94.6 39.4-129.2 78.1 3.2 7.5 7.1 14.9 11.6 21.9h158z" fill="#ffb233"/><path id="XMLID_1970_" d="m213 163h-158c-30.5-47.2-31.1-107.8-1.5-155.6l1.5-2.4z" fill="#d7d5c1"/><path id="XMLID_1969_" d="m372.3 487.4c-34.6 12.9-71.2 19.6-108.1 19.6h-16.3c-36.9 0-73.6-6.6-108.1-19.6-81.1-30.3-134.8-107.7-134.8-194.2 0-50.4 18.3-99 51.6-136.9 45.4-51.7 110.8-81.3 179.6-81.3h39.6c68.8 0 134.2 29.6 179.6 81.3 33.3 37.9 51.6 86.5 51.6 136.9 0 86.5-53.7 163.9-134.7 194.2z" fill="#ffc970"/><path id="XMLID_1968_" d="m372.3 445.4c-34.6 12.9-71.2 19.6-108.1 19.6h-16.3c-36.9 0-73.6-6.6-108.1-19.6-74.5-27.8-125.8-95.4-133.7-173.2-.7 7-1.1 13.9-1.1 21 0 86.5 53.7 163.9 134.7 194.3 34.6 12.9 71.2 19.6 108.1 19.6h16.3c36.9 0 73.6-6.6 108.1-19.6 81-30.3 134.7-107.7 134.7-194.3 0-7-.4-14-1.1-20.9-7.8 77.7-59.1 145.3-133.5 173.1z" fill="#ffb233"/><path id="XMLID_1967_" d="m256 240c-12.4 0-23.9 6.5-30.2 17.2l-8.4 14.1c-6.5 11-18.4 17.7-31.1 17.7-20 0-36.2 16.2-36.2 36.2v165.8c31.5 10.5 64.6 15.9 97.8 15.9h16.3c33.3 0 66.3-5.4 97.8-15.9v-165.8c0-20-16.2-36.2-36.2-36.2-12.8 0-24.6-6.7-31.1-17.7l-8.4-14.1c-6.4-10.7-17.9-17.2-30.3-17.2z" fill="#ebeae0"/><path id="XMLID_1966_" d="m231 75.1c0 38.6 11.2 69.9 25 69.9s25-31.3 25-69.9c-1.7 0-3.5-.1-5.2-.1h-39.6c-1.7 0-3.5 0-5.2.1z" fill="#e36414"/><path id="XMLID_1965_" d="m207.6 128.7c7.7-2.8 6.8-25.3-1.7-51.8-10.9 1.4-21.6 3.5-32.1 6.4 10.7 28.2 25.6 48.4 33.8 45.4z" fill="#e36414"/><path id="XMLID_1964_" d="m306.2 77c-8.5 26.5-9.4 49-1.7 51.8 8.2 3 23.1-17.2 33.8-45.4-10.5-2.9-21.3-5.1-32.1-6.4z" fill="#e36414"/><g id="XMLID_1960_"><path id="XMLID_1961_" d="m251 260h10v60h-10z" fill="#b24e10"/></g><g id="XMLID_1958_"><path id="XMLID_1959_" d="m103 303.4h10v41.2h-10z" fill="#b24e10" transform="matrix(.243 .97 -.97 .243 396.124 140.629)"/></g><g id="XMLID_1956_"><path id="XMLID_1957_" d="m87.4 289h41.2v10h-41.2z" fill="#b24e10" transform="matrix(.97 .243 -.243 .97 74.53 -17.416)"/></g><g id="XMLID_1954_"><path id="XMLID_1955_" d="m399 273.4h10v41.2h-10z" fill="#b24e10" transform="matrix(.243 .97 -.97 .243 591.216 -169.252)"/></g><g id="XMLID_1952_"><path id="XMLID_1953_" d="m383.4 319h41.2v10h-41.2z" fill="#b24e10" transform="matrix(.97 .243 -.243 .97 90.644 -88.311)"/></g><path id="XMLID_1951_" d="m261.9 240h-11.7c-7.8 0-14.1 6.3-14.1 14.1 0 3.8 1.5 7.3 4.1 10l15.8 15.9 15.9-15.9c2.7-2.7 4.1-6.2 4.1-10 0-7.8-6.3-14.1-14.1-14.1z" fill="#e36414"/><g id="XMLID_1949_"><path id="XMLID_1950_" d="m217 260h-10v-20c0-8.3-6.7-15-15-15s-15 6.7-15 15v20h-10v-20c0-13.8 11.2-25 25-25s25 11.2 25 25z" fill="#b24e10"/></g><g id="XMLID_1945_"><path id="XMLID_1946_" d="m345 260h-10v-20c0-8.3-6.7-15-15-15s-15 6.7-15 15v20h-10v-20c0-13.8 11.2-25 25-25s25 11.2 25 25z" fill="#b24e10"/></g><g id="XMLID_489_"><path id="XMLID_1942_" d="m304 325h-96c-13.8 0-25-11.2-25-25h10c0 8.3 6.7 15 15 15h96c8.3 0 15-6.7 15-15h10c0 13.8-11.2 25-25 25z" fill="#b24e10"/></g><g fill="#e36414"><path id="XMLID_488_" d="m9.2 334.5c2.1 10.6 5.1 20.9 8.8 30.9 25.8-10.5 43.6-24.2 40.8-31.9-2.8-7.6-24.1-6.9-49.6 1z"/><path id="XMLID_487_" d="m58.7 280.6c3.1-8.4-18.5-24-48.2-34.8-2.5 10.7-4.2 21.6-5 32.7 27.2 8.8 50.4 9.9 53.2 2.1z"/><path id="XMLID_486_" d="m501.5 245.7c-29.7 10.8-51.3 26.4-48.2 34.8 2.9 7.8 26.1 6.7 53.2-2.2-.8-11-2.5-21.9-5-32.6z"/><path id="XMLID_485_" d="m453.3 333.4c-2.8 7.7 15 21.4 40.8 31.9 3.7-10 6.7-20.3 8.8-30.9-25.6-7.8-46.9-8.5-49.6-1z"/></g><path id="XMLID_484_" d="m48.7 152.2 20.2-21.9c21.8-23.7 25.5-58.9 9.1-86.5l-23-38.8-1.5 2.4c-27.4 44.2-28.9 99.4-4.8 144.8z" fill="#ebeae0"/><path id="XMLID_483_" d="m463.3 152.2-20.2-21.9c-21.8-23.7-25.5-58.9-9.1-86.5l23-38.8 1.5 2.4c27.4 44.2 28.9 99.4 4.8 144.8z" fill="#ebeae0"/><path id="XMLID_482_" d="m264.2 465h-16.3c-33.3 0-66.3-5.4-97.8-15.9v42c31.5 10.5 64.6 15.9 97.8 15.9h16.3c33.3 0 66.3-5.4 97.8-15.9v-42c-31.5 10.5-64.6 15.9-97.8 15.9z" fill="#d7d5c1"/><path id="XMLID_1979_" d="m256 5.5c-74.6 0-135 18.8-135 42s60.4 42 135 42 135-18.8 135-42-60.4-42-135-42zm81.4 54.9c-22.6 5.9-51.5 9.1-81.4 9.1s-58.8-3.2-81.4-9.1c-17.9-4.6-27.3-9.7-31.5-12.9 4.2-3.2 13.6-8.3 31.5-12.9 22.6-5.9 51.5-9.1 81.4-9.1s58.8 3.2 81.4 9.1c17.9 4.6 27.3 9.7 31.5 12.9-4.2 3.2-13.6 8.3-31.5 12.9z" fill="#ebeae0"/></g><g id="XMLID_4467_"><g id="XMLID_1162_"><path id="XMLID_4119_" d="m251 280h10v40h-10z" fill="#4d2419"/></g><g id="XMLID_1161_"><path id="XMLID_4118_" d="m304 325h-96c-13.8 0-25-11.2-25-25h10c0 8.3 6.7 15 15 15h96c8.3 0 15-6.7 15-15h10c0 13.8-11.2 25-25 25z" fill="#4d2419"/></g><g id="XMLID_1157_"><path id="XMLID_4117_" d="m103 303.4h10v41.2h-10z" fill="#4d2419" transform="matrix(.243 .97 -.97 .243 396.124 140.629)"/></g><g id="XMLID_1156_"><path id="XMLID_4116_" d="m87.4 289h41.2v10h-41.2z" fill="#4d2419" transform="matrix(.97 .243 -.243 .97 74.53 -17.416)"/></g><g id="XMLID_1155_"><path id="XMLID_4115_" d="m399 273.4h10v41.2h-10z" fill="#4d2419" transform="matrix(.243 .97 -.97 .243 591.216 -169.252)"/></g><g id="XMLID_1154_"><path id="XMLID_4114_" d="m383.4 319h41.2v10h-41.2z" fill="#4d2419" transform="matrix(.97 .243 -.243 .97 90.644 -88.311)"/></g><g id="XMLID_1152_"><path id="XMLID_4111_" d="m256 285c-1.3 0-2.6-.5-3.5-1.5l-15.9-15.9c-3.6-3.6-5.6-8.4-5.6-13.5 0-10.6 8.6-19.1 19.1-19.1h11.7c10.6 0 19.1 8.6 19.1 19.1 0 5.1-2 9.9-5.6 13.5l-15.9 15.9c-.8 1-2.1 1.5-3.4 1.5zm-5.9-40c-5 0-9.1 4.1-9.1 9.1 0 2.4 1 4.7 2.7 6.5l12.3 12.3 12.3-12.3c1.7-1.7 2.7-4 2.7-6.5 0-5-4.1-9.1-9.1-9.1z" fill="#4d2419"/></g><g id="XMLID_1150_"><path id="XMLID_4110_" d="m36.6 44.3h125.4v10h-125.4z" fill="#4d2419" transform="matrix(.707 .707 -.707 .707 63.965 -55.785)"/></g><g id="XMLID_1148_"><path id="XMLID_4109_" d="m36.6 44.3h125.4v10h-125.4z" fill="#4d2419" transform="matrix(.707 .707 -.707 .707 63.965 -55.785)"/></g><g id="XMLID_1146_"><path id="XMLID_4108_" d="m407.7-13.4h10v125.4h-10z" fill="#4d2419" transform="matrix(.707 .707 -.707 .707 155.746 -277.363)"/></g><g id="XMLID_1145_"><path id="XMLID_4101_" d="m264.2 512h-16.3c-37.7 0-74.6-6.7-109.9-19.9-40.7-15.2-75.3-42.2-100.1-77.9-24.8-35.7-37.9-77.6-37.9-121 0-51.7 18.8-101.4 52.8-140.2 3.1-3.6 6.4-7.1 9.8-10.5l7.1 7c-3.2 3.2-6.4 6.6-9.4 10.1-32.4 36.9-50.3 84.4-50.3 133.6 0 84 52.8 160.1 131.5 189.6 34.1 12.8 69.9 19.3 106.4 19.3h16.3c36.5 0 72.3-6.5 106.4-19.3 78.6-29.5 131.4-105.7 131.4-189.6 0-49.2-17.9-96.6-50.4-133.6-3.4-3.8-6.9-7.6-10.5-11.2l7.1-7.1c3.8 3.8 7.4 7.7 10.9 11.7 34.1 38.8 52.8 88.6 52.8 140.2 0 43.5-13.1 85.3-37.9 121s-59.4 62.7-100.1 77.9c-35.1 13.2-72.1 19.9-109.7 19.9z" fill="#4d2419"/></g><g id="XMLID_1189_"><path id="XMLID_1194_" d="m256 94.5c-67.9 0-140-16.5-140-47s72.1-47 140-47 140 16.5 140 47-72.1 47-140 47zm0-84c-35.6 0-68.9 4.3-94 12.1-22.6 7-36 16.3-36 24.9s13.5 17.9 36 24.9c25 7.8 58.4 12.1 94 12.1s68.9-4.3 94-12.1c22.6-7 36-16.3 36-24.9s-13.5-17.9-36-24.9c-25.1-7.8-58.4-12.1-94-12.1z" fill="#4d2419"/></g><g id="XMLID_1190_"><g id="XMLID_1192_"><path id="XMLID_4097_" d="m256 74.5c-30.3 0-59.7-3.3-82.7-9.3-20-5.2-29.4-10.8-33.2-13.8-1.2-.9-2-2.4-2-4s.7-3 2-4c3.8-2.9 13.3-8.6 33.2-13.8 23-6 52.4-9.3 82.7-9.3s59.7 3.3 82.7 9.3c20 5.2 29.4 10.8 33.2 13.8 1.2.9 2 2.4 2 4s-.7 3-2 4c-3.8 2.9-13.3 8.6-33.2 13.8-23 6-52.4 9.3-82.7 9.3zm-103.2-27c4.8 2.3 12.1 5.2 23 8.1 22.2 5.8 50.7 8.9 80.2 8.9s58-3.2 80.2-8.9c10.9-2.8 18.2-5.7 23-8.1-4.8-2.3-12.1-5.2-23-8.1-22.2-5.8-50.7-8.9-80.2-8.9s-58 3.2-80.2 8.9c-10.9 2.9-18.2 5.8-23 8.1z" fill="#4d2419"/></g></g><g id="XMLID_1153_"><path id="XMLID_4078_" d="m217 260h-10v-20c0-8.3-6.7-15-15-15s-15 6.7-15 15v20h-10v-20c0-13.8 11.2-25 25-25s25 11.2 25 25z" fill="#4d2419"/></g><g id="XMLID_82_"><path id="XMLID_4077_" d="m345 260h-10v-20c0-8.3-6.7-15-15-15s-15 6.7-15 15v20h-10v-20c0-13.8 11.2-25 25-25s25 11.2 25 25z" fill="#4d2419"/></g><g id="XMLID_503_"><path id="XMLID_663_" d="m411.1 123.1c-24-17-50.6-29.2-79.2-36.2l2.4-9.7c29.8 7.4 57.6 20.1 82.6 37.8z" fill="#4d2419"/></g><g id="XMLID_504_"><path id="XMLID_661_" d="m100.9 123.1-5.8-8.2c25-17.7 52.8-30.5 82.6-37.8l2.4 9.7c-28.6 7.1-55.2 19.3-79.2 36.3z" fill="#4d2419"/></g><g id="XMLID_501_"><path id="XMLID_658_" d="m50.8 165.7c-.6-1-1.2-1.9-1.8-2.9-14.6-23.8-22.3-51.1-22.3-79 0-28 7.8-55.3 22.6-79l1.5-2.4c.9-1.5 2.5-2.4 4.2-2.4h1.5c29 0 57.2 8.3 81.5 24l-5.4 8.4c-22.4-14.4-48.2-22.1-74.8-22.4-28.2 45.5-28.3 102-.3 147.5.6.9 1.1 1.8 1.7 2.7z" fill="#4d2419"/></g><g id="XMLID_517_"><path id="XMLID_657_" d="m461.2 165.7-8.4-5.4c.6-.9 1.1-1.8 1.7-2.7 28-45.5 27.9-102.1-.3-147.5-26.6.2-52.4 8-74.8 22.4l-5.4-8.5c24.3-15.7 52.5-24 81.5-24h1.5c1.7 0 3.3.9 4.3 2.4l1.5 2.4c14.7 23.8 22.5 51.1 22.6 79 0 27.9-7.7 55.2-22.3 79-.7 1-1.3 2-1.9 2.9z" fill="#4d2419"/></g><g id="XMLID_505_"><path id="XMLID_656_" d="m205.9 134c-14.2 0-29.5-29.9-36.8-49l9.3-3.6c11.5 30.3 24 42.5 27.3 42.5h.1c1.5-1 4.2-11.8-2-35.7l9.7-2.5c3.3 12.6 9.4 42.6-4.3 47.6-1.1.5-2.2.7-3.3.7z" fill="#4d2419"/></g><g id="XMLID_516_"><path id="XMLID_655_" d="m256 150c-17.4 0-27.3-30.6-29.5-60.8l10-.7c2.4 33.6 12.9 51.5 19.5 51.5s17.1-17.9 19.5-51.4l10 .7c-2.2 30.2-12.1 60.7-29.5 60.7z" fill="#4d2419"/></g><g id="XMLID_506_"><path id="XMLID_654_" d="m306.1 134c-1.1 0-2.3-.2-3.4-.6-13.8-5-7.6-35.1-4.3-47.8l9.7 2.5c-6.2 24-3.6 34.9-1.9 35.9h.1c3.2 0 15.7-12.2 27.2-42.5l9.3 3.6c-7.1 19-22.4 48.9-36.7 48.9z" fill="#4d2419"/></g></g></g></svg>