<?xml version="1.0" encoding="iso-8859-1"?>
<!-- Generator: Adobe Illustrator 27.0.0, SVG Export Plug-In . SVG Version: 6.00 Build 0)  -->
<svg version="1.1" id="Capa_1" xmlns="http://www.w3.org/2000/svg" xmlns:xlink="http://www.w3.org/1999/xlink" x="0px" y="0px"
	 viewBox="0 0 510.003 510.003" style="enable-background:new 0 0 510.003 510.003;" xml:space="preserve">
<g>
	<g>
		<path style="fill-rule:evenodd;clip-rule:evenodd;fill:#FD6050;" d="M342.859,461.224
			c77.807-25.666,138.34-86.224,157.142-173.578l-26.955-8.052c4.723-9.384,9.445-18.768,14.168-28.152
			c-53.8-31.188-71.83-156.437-232.213-156.437S76.588,220.253,22.788,251.442c4.723,9.384,9.445,18.768,14.168,28.152
			l-26.955,8.052C28.804,375,89.338,435.558,167.144,461.224c27.489,9.068,57.135,13.78,87.858,13.78
			C285.725,475.005,315.37,470.292,342.859,461.224z"/>
		<path style="fill-rule:evenodd;clip-rule:evenodd;fill:#BC3C85;" d="M134.877,129.066
			C78.496,168.511,58.527,230.724,22.788,251.442c4.723,9.384,9.445,18.768,14.168,28.152l-26.955,8.052
			C28.804,375,89.338,435.558,167.144,461.224c27.489,9.068,57.135,13.78,87.858,13.78c3.193,0,6.375-0.052,9.543-0.153
			c-83.613-61.118-137.942-159.917-137.942-271.419C126.603,177.875,129.471,152.989,134.877,129.066z"/>
		<path style="fill-rule:evenodd;clip-rule:evenodd;fill:#D2DCFD;" d="M128.319,342.019c9.573-35.936-42.304-55.076-55.29-11.007
			c-6.834,23.192,2.788,63.609,26.245,91.916C96.079,384.884,122.599,363.49,128.319,342.019z"/>
		<ellipse style="fill-rule:evenodd;clip-rule:evenodd;fill:#FFFFFF;" cx="177.317" cy="222.504" rx="30" ry="22.5"/>
		<ellipse style="fill-rule:evenodd;clip-rule:evenodd;fill:#FFFFFF;" cx="332.687" cy="222.504" rx="30" ry="22.5"/>
		<path style="fill-rule:evenodd;clip-rule:evenodd;fill:#FFFFFF;" d="M436.975,331.012c-12.986-44.069-64.863-24.929-55.29,11.007
			c5.72,21.471,32.239,42.865,29.045,80.909C434.187,394.622,443.809,354.204,436.975,331.012z"/>
		<path style="fill-rule:evenodd;clip-rule:evenodd;fill:#FD6050;" d="M155.309,116.721c13.283-6.826,28.321-12.409,45.554-16.203
			l-0.348-0.602c-36.522-45.85-93.158-69.109-149.481-64.285C13.936,89.073,8.529,161.373,43.113,221.519
			c1.375,2.39,2.797,4.735,4.266,7.034l0.297,0.297c9.486-11.462,18.729-25.276,29.212-39.618
			C95.955,163.147,119.123,135.317,155.309,116.721z"/>
		<path style="fill-rule:evenodd;clip-rule:evenodd;fill:#BC3C85;" d="M154.896,116.307c-21.044-20.539-48.618-33.27-78.075-35.829
			c-15.887,34.126-16.138,73.806-0.158,108.365l0.225,0.39c19.067-26.086,42.235-53.916,78.421-72.512L154.896,116.307z"/>
		<path style="fill-rule:evenodd;clip-rule:evenodd;fill:#FD6050;" d="M354.694,116.721c-13.283-6.826-28.321-12.409-45.554-16.203
			l0.348-0.602c36.522-45.85,93.158-69.109,149.481-64.285c37.098,53.443,42.505,125.743,7.921,185.889
			c-1.374,2.39-2.797,4.735-4.266,7.034l-0.297,0.297c-9.486-11.462-18.729-25.276-29.212-39.618
			C414.049,163.147,390.881,135.317,354.694,116.721z"/>
		<path style="fill-rule:evenodd;clip-rule:evenodd;fill:#BC3C85;" d="M355.108,116.307c21.044-20.539,48.618-33.27,78.075-35.829
			c15.887,34.126,16.138,73.806,0.158,108.365l-0.225,0.39c-19.067-26.086-42.235-53.916-78.421-72.512L355.108,116.307z"/>
		<path style="fill-rule:evenodd;clip-rule:evenodd;fill:#FFFFFF;" d="M342.859,461.224
			c53.027-53.027-14.187-102.608-53.915-125.545c-3.606,11.493-17.434,24.326-33.943,24.326c-16.509,0-30.337-12.833-33.943-24.326
			c-15.1,8.718-34.165,21.287-49.095,36.429c-14.25,27.234-28.971,56.785-4.82,89.116c27.489,9.068,57.135,13.78,87.858,13.78
			C285.725,475.005,315.37,470.292,342.859,461.224z"/>
		<path style="fill-rule:evenodd;clip-rule:evenodd;fill:#B55348;" d="M255.002,360.005c16.509,0,30.337-12.833,33.943-24.326
			c0.599-1.91,0.916-3.783,0.916-5.553c0-12.427-15.607-20.122-34.859-20.122c-19.252,0-34.859,7.695-34.859,20.122
			c0,1.771,0.317,3.644,0.916,5.553C224.665,347.172,238.493,360.005,255.002,360.005z"/>
		<path style="fill-rule:evenodd;clip-rule:evenodd;fill:#D2DCFD;" d="M171.964,372.108c-24.352,24.697-37.693,56.243-4.82,89.116
			c27.489,9.068,57.135,13.78,87.858,13.78c3.193,0,6.375-0.052,9.543-0.153C227.039,447.432,195.422,412.44,171.964,372.108z"/>
	</g>
	<g>
		<path style="fill:#052A75;" d="M502.864,278.065l-15.52-4.636l8.804-17.491c2.38-4.729,0.662-10.492-3.917-13.147
			c-6.117-3.546-11.847-8.653-17.495-14.87c0.276-0.471,0.552-0.943,0.823-1.416c17.679-30.746,26.061-65.657,24.238-100.958
			c-1.774-34.374-13.052-67.438-32.613-95.618c-1.697-2.445-4.396-4.007-7.361-4.261C400.942,20.618,343.24,44.453,305.13,89.467
			c-15.648-2.985-32.324-4.463-50.128-4.463c-17.804,0-34.479,1.478-50.127,4.463C166.749,44.43,109.153,20.618,50.18,25.667
			c-2.966,0.254-5.664,1.816-7.361,4.261c-19.562,28.18-30.839,61.244-32.613,95.618c-1.822,35.302,6.56,70.213,24.237,100.957
			c0.271,0.471,0.546,0.944,0.824,1.419c-5.648,6.217-11.378,11.324-17.494,14.87c-4.579,2.655-6.297,8.418-3.917,13.147
			l8.803,17.491l-15.52,4.637c-5.001,1.494-8.012,6.583-6.914,11.686c12.746,59.214,44.471,108.99,91.742,143.946
			c45.392,33.566,101.769,51.308,163.034,51.308s117.643-17.742,163.034-51.308c47.272-34.956,78.996-84.732,91.742-143.946
			C510.876,284.648,507.865,279.559,502.864,278.065z M453.396,45.258c32.311,49.581,35.282,113.541,7.802,165.861
			c-3.415-4.607-6.887-9.483-10.482-14.53c-17.302-24.292-36.911-51.825-67.026-73.718c-17.074-12.413-35.821-21.718-56.518-27.998
			C359.867,60.818,405.998,42.586,453.396,45.258z M56.608,45.258c47.454-2.684,93.526,15.541,126.225,49.615
			c-20.697,6.28-39.444,15.585-56.519,27.998c-30.115,21.893-49.725,49.426-67.026,73.718c-3.595,5.047-7.067,9.923-10.483,14.53
			C21.325,158.801,24.296,94.839,56.608,45.258z M255.002,465.004c-116.109,0-206.609-66.588-233.111-170.473l17.929-5.356
			c2.835-0.847,5.149-2.905,6.32-5.622c1.172-2.716,1.08-5.812-0.25-8.455l-10.206-20.279c14.605-11.119,26.47-27.778,39.896-46.627
			c32.743-45.973,73.492-103.187,179.423-103.187s146.681,57.215,179.424,103.187c13.426,18.85,25.29,35.508,39.896,46.627
			l-10.206,20.278c-1.331,2.643-1.423,5.738-0.251,8.455c1.171,2.717,3.485,4.776,6.32,5.623l17.929,5.356
			C461.612,398.416,371.112,465.004,255.002,465.004z"/>
		<path style="fill:#052A75;" d="M177.317,280.004c-5.522,0-10,4.477-10,10v10c0,5.523,4.478,10,10,10s10-4.477,10-10v-10
			C187.317,284.481,182.84,280.004,177.317,280.004z"/>
		<path style="fill:#052A75;" d="M332.687,280.004c-5.522,0-10,4.477-10,10v10c0,5.523,4.478,10,10,10s10-4.477,10-10v-10
			C342.687,284.481,338.21,280.004,332.687,280.004z"/>
		<path style="fill:#052A75;" d="M299.861,330.126c0-17.735-18.447-30.122-44.859-30.122s-44.858,12.387-44.858,30.122
			c0,15.563,14.854,33.911,34.858,38.693v0.326c-3.656,4.852-9.42,7.783-15.551,7.783c-5.522,0-10,4.477-10,10s4.478,10,10,10
			c9.473,0,18.51-3.441,25.551-9.421c7.041,5.979,16.078,9.421,25.552,9.421c5.522,0,10-4.477,10-10s-4.478-10-10-10
			c-6.131,0-11.896-2.932-15.552-7.783v-0.326C285.007,364.037,299.861,345.689,299.861,330.126z M230.143,330.126
			c0-4.888,9.988-10.122,24.858-10.122s24.859,5.234,24.859,10.122c0,6.63-10.747,19.879-24.859,19.879
			C240.89,350.005,230.143,336.756,230.143,330.126z"/>
	</g>
</g>
<g>
</g>
<g>
</g>
<g>
</g>
<g>
</g>
<g>
</g>
<g>
</g>
<g>
</g>
<g>
</g>
<g>
</g>
<g>
</g>
<g>
</g>
<g>
</g>
<g>
</g>
<g>
</g>
<g>
</g>
</svg>
