<svg id="Capa_1" enable-background="new 0 0 512.135 512.135" height="512" viewBox="0 0 512.135 512.135" width="512" xmlns="http://www.w3.org/2000/svg"><g><path d="m388.014 256.066c0 63.322-44.633 116.228-104.164 128.953-8.933 1.916-18.206 2.926-27.715 2.926-72.832 0-131.879-59.046-131.879-131.879 0-55.523 76.634-121.051 113.066-149.075 4.049-3.121 8.696-5.099 13.486-5.924 8.314-1.463 17.103.515 24.14 5.924 36.442 28.025 113.066 93.553 113.066 149.075z" fill="#a4e7ff"/><path d="m283.85 385.019c-8.933 1.916-18.206 2.926-27.715 2.926-72.832 0-131.879-59.046-131.879-131.879 0-55.523 76.634-121.051 113.066-149.075 4.049-3.121 8.696-5.099 13.486-5.924-21.512 33.846-94.798 169.897 33.042 283.952z" fill="#83deff"/><path d="m338.106 238.932c16.701 0 30.239 10.777 30.239 24.078s-13.538 24.089-30.239 24.089-30.25-10.787-30.25-24.089c0-13.301 13.549-24.078 30.25-24.078z" fill="#fff"/><path d="m174.164 238.932c16.712 0 30.25 10.777 30.25 24.078s-13.538 24.089-30.25 24.089c-16.701 0-30.24-10.787-30.24-24.089 0-13.301 13.539-24.078 30.24-24.078z" fill="#fff"/><path d="m472.798 174.219c2.72-1.03 5.492-1.515 8.222-1.515 10.231 0 19.73 6.831 22.533 17.381 5.564 20.915 8.541 42.892 8.582 65.558.227 139.946-113.014 254.774-252.94 256.402-66.774.783-127.747-24.006-173.73-65.167v3.132c0 12.848-10.416 23.264-23.264 23.264h-.01c-12.848 0-23.264-10.416-23.264-23.264v-38.976c0-5.378.917-10.54 2.607-15.341 5.481-15.671 19.143-27.488 35.875-30.353 2.565-.443 5.193-.67 7.882-.67h38.966c6.429 0 12.25 2.607 16.464 6.81 4.286 4.296 6.903 10.251 6.81 16.825-.196 12.796-10.993 22.914-23.8 22.914h-8.294c37.184 33.753 86.566 54.307 140.74 54.297 115.868-.021 210.296-95.231 209.399-211.089-.134-18.123-2.576-35.7-7.037-52.442-3.071-11.549 3.08-23.542 14.259-27.766z" fill="#ace094"/><path d="m53.732 310.147c3.974 14.901-7.363 29.281-22.481 29.281-10.231 0-19.73-6.831-22.533-17.381-43.076-161.952 79.004-320.18 244.594-321.96 66.681-.721 127.552 24.047 173.493 65.167v-3.132c0-12.848 10.416-23.264 23.264-23.264 12.872 0 23.275 10.427 23.275 23.264v38.976c0 25.507-20.672 46.364-46.364 46.364h-38.966c-13.002 0-23.458-10.618-23.275-23.625.196-12.807 10.993-22.924 23.8-22.924h8.304c-37.194-33.753-86.566-54.307-140.74-54.297-136.822.024-237.805 130.551-202.371 263.531z" fill="#ace094"/><g fill="#423e4f"><path d="m191.792 247.556c-4.268 0-7.727-3.459-7.727-7.727v-12.364c0-4.268 3.459-7.727 7.727-7.727s7.727 3.459 7.727 7.727v12.364c.001 4.268-3.459 7.727-7.727 7.727z"/><path d="m320.478 247.556c-4.268 0-7.727-3.459-7.727-7.727v-12.364c0-4.268 3.459-7.727 7.727-7.727s7.727 3.459 7.727 7.727v12.364c0 4.268-3.459 7.727-7.727 7.727z"/><path d="m256.135 254.912c-8.732 0-17.036-3.782-22.785-10.377-2.804-3.218-2.468-8.099.749-10.903 3.217-2.803 8.097-2.468 10.903.749 2.811 3.227 6.87 5.077 11.133 5.077s8.327-1.853 11.149-5.084c2.81-3.214 7.69-3.542 10.904-.736 3.214 2.808 3.543 7.69.736 10.904-5.759 6.59-14.065 10.37-22.789 10.37z"/></g></g></svg>