<svg id="Capa_1" enable-background="new 0 0 512 512" height="512" viewBox="0 0 512 512" width="512" xmlns="http://www.w3.org/2000/svg"><g><path d="m452 467v-76l-30-15h-31l-30 15v76c0 8.276-6.724 15-15 15l30 15h61l30-15c-8.276 0-15-6.724-15-15z" fill="#2e2e4d"/><path d="m151 467v-76l-31-15h-30l-30 15v76c0 8.276-6.724 15-15 15l30 15h61l30-15c-8.276 0-15-6.724-15-15z" fill="#3d4566"/><path d="m271 210 30 30h75v-30z" fill="#3d4566"/><path d="m136 210v30h75l30-30z" fill="#4d5e80"/><path d="m452 391h-91v-241l30.474-30h60.526z" fill="#e63a3a"/><path d="m151 391h-91v-241l30.474-30h60.526z" fill="#f25a3c"/><path d="m60 60h392v90h-392z" fill="#ff7f40"/><path d="m256 60h196v90h-196z" fill="#f25a3c"/><path d="m211 60h90v180h-90z" fill="#ffdf40"/><path d="m256 60h45v180h-45z" fill="#ffbe40"/><g><path d="m0 482h512v30h-512z" fill="#4d5e80"/></g><path d="m256 482h256v30h-256z" fill="#3d4566"/><g><path d="m512 0v31c0 31.5-25.8 59-60 59h-392c-30.601 0-60-25.201-60-60v-30h30v15c0 8.401 6.599 15 15 15h422c8.401 0 15-6.599 15-15v-15z" fill="#4d5e80"/></g><path d="m512 0v31c0 31.5-25.8 59-60 59h-196v-60h211c8.401 0 15-6.599 15-15v-15z" fill="#3d4566"/></g></svg>